<svg width="129" height="12" viewBox="0 0 129 12" fill="none" xmlns="http://www.w3.org/2000/svg">
<path d="M127.183 4.65632V5.65336H124.147V7.99867H128.226V9.02971H118.867V7.99867H122.901V5.65336H120V0.758789H127.104V1.76716H121.258V4.65632H127.183Z" fill="black"/>
<path d="M112.659 2.45861C112.659 4.36206 113.565 6.23151 115.197 6.9453L114.438 7.95368C113.277 7.38717 112.461 6.29949 112.025 4.96255C111.577 6.37314 110.744 7.54579 109.566 8.14629L108.773 7.12658C110.438 6.34481 111.367 4.37339 111.379 2.45861V0.827091H112.659V2.45861ZM117.463 0V10.2537H116.217V4.32807H114.064V3.30837H116.217V0H117.463Z" fill="black"/>
<path d="M107.72 0V10.2423H106.508V0H107.72ZM105.613 0.18128V9.74382H104.412V4.87191H103.437C103.318 6.86599 102.463 8.10097 101.194 8.08964C99.8569 8.10097 98.9845 6.68471 98.9845 4.43004C98.9845 2.17536 99.8569 0.781771 101.194 0.781771C102.434 0.781771 103.279 1.93743 103.426 3.85221H104.412V0.18128H105.613ZM101.194 1.97142C100.548 1.96009 100.14 2.83251 100.151 4.43004C100.14 6.02757 100.548 6.89998 101.194 6.88865C101.874 6.89998 102.282 6.02757 102.282 4.43004C102.282 2.83251 101.874 1.96009 101.194 1.97142Z" fill="black"/>
<path d="M97.4218 0.0117188V7.41022H96.1528V0.0117188H97.4218ZM97.705 9.01909V10.0388H90.6464V6.66244H91.9154V9.01909H97.705ZM91.8361 0.68019C93.3883 0.68019 94.5893 1.75654 94.5893 3.24078C94.5893 4.759 93.3883 5.81269 91.8361 5.81269C90.2725 5.81269 89.0715 4.759 89.0715 3.24078C89.0715 1.75654 90.2725 0.68019 91.8361 0.68019ZM91.8361 1.7792C90.9636 1.7792 90.2952 2.35703 90.3065 3.24078C90.2952 4.14718 90.9636 4.71368 91.8361 4.71368C92.6858 4.71368 93.3543 4.14718 93.3543 3.24078C93.3543 2.35703 92.6858 1.7792 91.8361 1.7792Z" fill="black"/>
<path d="M86.9197 0V3.93152H88.4946V4.98521H86.9197V10.2537H85.6734V0H86.9197ZM84.0192 0.895072V4.75861H80.5749V6.79801C82.1951 6.78668 83.4584 6.7187 84.8916 6.46944L85.0049 7.48914C83.43 7.77239 82.0251 7.84037 80.167 7.84037H79.3286V3.75024H82.7616V1.91477H79.3059V0.895072H84.0192Z" fill="black"/>
<path d="M78.2417 5.33639V6.35609H68.9058V5.33639H72.9279V4.42999C71.0585 4.29403 69.8688 3.54058 69.8688 2.3566C69.8688 1.0763 71.3304 0.283203 73.5624 0.283203C75.7944 0.283203 77.2447 1.0763 77.256 2.3566C77.2447 3.54058 76.0663 4.29403 74.1969 4.42999V5.33639H78.2417ZM77.188 9.01865V10.0384H70.0614V7.05856H71.3191V9.01865H77.188ZM73.5624 1.28024C72.0782 1.29157 71.1718 1.6768 71.1831 2.3566C71.1718 3.07039 72.0782 3.43295 73.5624 3.43295C75.058 3.43295 75.953 3.07039 75.953 2.3566C75.953 1.6768 75.058 1.29157 73.5624 1.28024Z" fill="black"/>
<path d="M65.2592 8.42969L64.3074 11.6021H63.2311L63.8202 8.42969H65.2592Z" fill="black"/>
<path d="M56.9437 2.91182C56.9437 4.49802 57.8841 6.29949 59.5043 7.04727L58.8018 8.04432C57.6462 7.50047 56.7907 6.40146 56.3319 5.12117C55.8673 6.52609 54.9723 7.72708 53.7939 8.29358L53.0575 7.30786C54.689 6.53742 55.6747 4.61132 55.6861 2.91182V2.05073H53.454V1.00837H59.0851V2.05073H56.9437V2.91182ZM61.2944 0V3.98817H62.8693V5.04186H61.2944V10.2423H60.0368V0H61.2944Z" fill="black"/>
<path d="M46.9401 2.45861C46.9288 4.28275 47.8465 6.14087 49.4327 6.89998L48.6623 7.90836C47.5519 7.34752 46.7532 6.2655 46.3169 4.96255C45.8694 6.35614 45.031 7.5118 43.8583 8.10097L43.0879 7.09259C44.7307 6.31082 45.6711 4.35073 45.6825 2.45861V0.827091H46.9401V2.45861ZM51.3022 0V4.01083H52.877V5.08718H51.3022V10.2423H50.0445V0H51.3022Z" fill="black"/>
<path d="M38.9314 0.94043V1.92614C38.92 3.1951 38.9201 4.62269 38.5235 6.76406L37.2545 6.6281C37.6511 4.63402 37.6511 3.17811 37.6624 1.9488H31.5442V0.94043H38.9314ZM39.9058 7.88573V8.91676H30.5698V7.88573H34.0142V4.32811H35.2605V7.88573H39.9058Z" fill="black"/>
<path d="M29.9362 7.97622V9.00725H20.5776V7.97622H24.6111V5.98214H21.6087V0.679688H22.8663V2.35653H27.6136V0.679688H28.8712V5.98214H25.8574V7.97622H29.9362ZM22.8663 4.96244H27.6136V3.3649H22.8663V4.96244Z" fill="black"/>
<path d="M13.3838 0.747782C14.7717 0.747782 15.7971 1.90344 15.9784 3.7729H17.9272V0H19.1735V10.2537H17.9272V4.7926H15.9897C15.8538 6.76969 14.8114 7.98767 13.3838 7.98767C11.8429 7.98767 10.7552 6.59407 10.7552 4.36206C10.7552 2.1527 11.8429 0.747782 13.3838 0.747782ZM13.3838 1.88078C12.5341 1.88078 11.9562 2.79852 11.9676 4.36206C11.9562 5.93693 12.5341 6.85466 13.3838 6.85466C14.2336 6.85466 14.8001 5.93693 14.8114 4.36206C14.8001 2.79852 14.2336 1.88078 13.3838 1.88078Z" fill="black"/>
<path d="M9.12452 0V5.49506H7.85556V0H9.12452ZM3.59547 5.97092V7.02461H7.86689V5.97092H9.12452V10.1177H2.34917V5.97092H3.59547ZM3.59547 9.09801H7.86689V8.01033H3.59547V9.09801ZM3.53882 0.453201C5.11369 0.441871 6.29201 1.42758 6.29201 2.85517C6.29201 4.24876 5.11369 5.23447 3.53882 5.23447C1.95261 5.23447 0.774292 4.24876 0.774292 2.85517C0.774292 1.42758 1.95261 0.441871 3.53882 0.453201ZM3.53882 1.50689C2.64375 1.50689 1.99793 2.02807 2.00926 2.85517C1.99793 3.67093 2.64375 4.19211 3.53882 4.20344C4.42256 4.19211 5.05704 3.67093 5.05704 2.85517C5.05704 2.02807 4.42256 1.50689 3.53882 1.50689Z" fill="black"/>
</svg>
