<svg width="72" height="9" viewBox="0 0 72 9" fill="none" xmlns="http://www.w3.org/2000/svg">
<path d="M71.9656 4.18973V4.78219H68.6304V5.64811C70.1571 5.71191 71.0568 6.21323 71.0659 7.07003C71.0568 7.9724 70.0208 8.48284 68.285 8.48284C66.5311 8.48284 65.4951 7.9724 65.4951 7.07003C65.4951 6.21323 66.3902 5.71191 67.9306 5.64811V4.78219H64.6045V4.18973H71.9656ZM68.285 6.195C66.9855 6.20412 66.213 6.52314 66.2221 7.07003C66.213 7.60781 66.9855 7.92683 68.285 7.92683C69.5664 7.92683 70.348 7.60781 70.348 7.07003C70.348 6.52314 69.5664 6.20412 68.285 6.195ZM71.3113 0.780762V1.36411H68.7485C68.794 2.2756 70.1299 2.98201 71.5566 3.1324L71.2931 3.69752C69.9708 3.53801 68.7303 2.94555 68.285 2.03862C67.8443 2.94555 66.6083 3.53801 65.277 3.69752L65.0225 3.1324C66.422 2.98201 67.767 2.2756 67.8216 1.36411H65.277V0.780762H71.3113Z" fill="currentColor"/>
<path d="M61.0926 0.999694V1.58305H57.9391V2.60391H60.8654V3.18727H57.9391V4.25371C59.6613 4.25371 60.6155 4.2218 61.756 4.03495L61.8287 4.6183C60.6473 4.80971 59.6567 4.84617 57.8755 4.84617H57.2212V0.999694H61.0926ZM63.4191 0.407227V5.42953H62.7102V0.407227H63.4191ZM60.7382 5.54802C62.4194 5.5389 63.4554 6.07668 63.4554 7.0064C63.4554 7.95435 62.4194 8.48301 60.7382 8.48301C59.0206 8.48301 58.0027 7.95435 58.0027 7.0064C58.0027 6.07668 59.0206 5.5389 60.7382 5.54802ZM60.7382 6.11314C59.4659 6.11314 58.7116 6.45039 58.7116 7.0064C58.7116 7.58064 59.4659 7.91789 60.7382 7.91789C61.9741 7.91789 62.7556 7.58064 62.7556 7.0064C62.7556 6.45039 61.9741 6.11314 60.7382 6.11314Z" fill="currentColor"/>
<path d="M55.5709 0.398193V8.50132H54.853V0.398193H55.5709ZM53.7079 1.28234V1.8748H52.7901V5.77597C53.2445 5.74407 53.6943 5.70305 54.126 5.64837L54.1714 6.18614C52.4084 6.45959 50.4636 6.48693 48.9641 6.49605L48.8823 5.88535L50.0001 5.87624V1.8748H49.0913V1.28234H53.7079ZM50.6999 5.86712C51.1543 5.85801 51.6223 5.83978 52.0903 5.81243V1.8748H50.6999V5.86712Z" fill="currentColor"/>
<path d="M41.7295 2.57665C41.7295 4.04415 42.6656 5.52076 43.8379 6.05853L43.4108 6.64189C42.4929 6.16791 41.7341 5.19718 41.3751 4.04415C41.0161 5.25642 40.2573 6.29552 39.3395 6.78772L38.876 6.21349C40.0574 5.63014 41.0025 4.07149 41.0025 2.57665V1.10004H41.7295V2.57665ZM45.5828 0.398193V8.51955H44.8739V3.75247H42.9564V3.16912H44.8739V0.398193H45.5828Z" fill="currentColor"/>
<path d="M37.9543 0.398193V8.50132H37.2636V0.398193H37.9543ZM36.3276 0.571376V8.09115H35.646V4.15352H34.61C34.5328 5.7304 33.8648 6.71481 32.8652 6.71481C31.811 6.71481 31.1294 5.62102 31.1294 3.89831C31.1294 2.1756 31.811 1.08181 32.8652 1.08181C33.8466 1.08181 34.51 2.03431 34.6009 3.56106H35.646V0.571376H36.3276ZM32.8652 1.75631C32.2108 1.75631 31.7928 2.57665 31.8019 3.89831C31.7928 5.21085 32.2108 6.0403 32.8652 6.03119C33.5195 6.0403 33.9375 5.21085 33.9375 3.89831C33.9375 2.57665 33.5195 1.75631 32.8652 1.75631Z" fill="currentColor"/>
<path d="M30.5522 2.8136V3.70686H29.5798V6.27725C29.5798 6.75123 29.8161 6.85149 30.1069 6.85149C30.2432 6.85149 30.4704 6.84237 30.6158 6.83326V7.78121C30.4795 7.80855 30.2523 7.82678 29.9615 7.82678C29.0891 7.82678 28.4166 7.39838 28.4256 6.46866V3.70686H27.7168V2.8136H28.4256V1.62866H29.5798V2.8136H30.5522Z" fill="currentColor"/>
<path d="M26.0032 7.76292V2.81354H27.1664V7.76292H26.0032ZM26.5939 2.1117C26.2304 2.1117 25.9214 1.82913 25.9214 1.47365C25.9214 1.12729 26.2304 0.844727 26.5939 0.844727C26.9665 0.844727 27.2664 1.12729 27.2664 1.47365C27.2664 1.82913 26.9665 2.1117 26.5939 2.1117Z" fill="currentColor"/>
<path d="M21.0278 7.76299V1.16382H25.2446V2.15734H22.2092V3.96209H24.9538V4.95561H22.2092V7.76299H21.0278Z" fill="currentColor"/>
<path d="M16.106 7.76286V7.02455L18.6505 3.81611V3.77054H16.1877V2.81348H20.0682V3.60647L17.6418 6.76022V6.80579H20.1591V7.76286H16.106Z" fill="currentColor"/>
<path d="M11.0112 6.36836C11.0112 5.25635 11.9291 4.92821 12.847 4.87352C13.1878 4.85074 13.8966 4.80972 14.1102 4.8006V4.40866C14.1102 3.91646 13.7921 3.6339 13.2196 3.6339C12.7016 3.6339 12.3835 3.87089 12.2926 4.22637H11.1748C11.2566 3.3878 12.0109 2.74976 13.2468 2.74976C14.1829 2.74976 15.2643 3.13258 15.2643 4.45424V7.76294H14.1556V7.07932H14.1192C13.9011 7.49861 13.4377 7.8632 12.6652 7.8632C11.7201 7.8632 11.0112 7.34366 11.0112 6.36836ZM12.129 6.35925C12.129 6.78765 12.4744 7.00641 12.9651 7.00641C13.6649 7.00641 14.1192 6.54155 14.1192 5.98554V5.57537L13.0287 5.64829C12.4744 5.69386 12.129 5.92173 12.129 6.35925Z" fill="currentColor"/>
<path d="M7.12661 4.86446V7.76299H5.96338V1.16382H7.09935V3.65218H7.16297C7.39016 3.09617 7.86272 2.74981 8.6261 2.74981C9.65302 2.74981 10.3255 3.41519 10.3255 4.60924V7.76299H9.17136V4.79154C9.17136 4.11704 8.80785 3.73421 8.19897 3.73421C7.57192 3.73421 7.12661 4.14438 7.12661 4.86446Z" fill="currentColor"/>
<path d="M0.0336914 2.15734V1.16382H5.27734V2.15734H3.25076V7.76299H2.06935V2.15734H0.0336914Z" fill="currentColor"/>
</svg>
