<svg width="20" height="20" viewBox="0 0 20 20" fill="none" xmlns="http://www.w3.org/2000/svg">
<g clip-path="url(#clip0_3010_5117)">
<path d="M15.8926 15.5469V15.7891H16.4473C17.0283 15.7893 17.4998 16.2607 17.5 16.8418C17.5 17.423 17.0284 17.8943 16.4473 17.8945H11.0713V18.9473C11.0713 19.5286 10.5998 19.9999 10.0186 20C9.43725 19.9999 8.96582 19.5286 8.96582 18.9473V17.8945H3.55273C2.97138 17.8945 2.5 17.4231 2.5 16.8418C2.50017 16.2606 2.97148 15.7891 3.55273 15.7891H4.10742V12.874L15.8926 15.5469ZM15.8926 10.2832V13.3877L4.10742 10.7158V7.61035L15.8926 10.2832ZM10.0186 0C10.5997 8.75935e-05 11.0711 0.471578 11.0713 1.05273V2.10547H16.4473C17.0284 2.10567 17.4999 2.57702 17.5 3.1582C17.5 3.73943 17.0284 4.21074 16.4473 4.21094H15.8926V8.12402L4.10742 5.45215V4.21094H3.55273C2.97138 4.21094 2.5 3.73956 2.5 3.1582C2.50006 2.5769 2.97142 2.10547 3.55273 2.10547H8.96582V1.05273C8.96599 0.471558 9.43735 5.54749e-05 10.0186 0Z" fill="black"/>
</g>
<defs>
<clipPath id="clip0_3010_5117">
<rect width="20" height="20" fill="white"/>
</clipPath>
</defs>
</svg>
